<?xml version="1.0" encoding="UTF-8" standalone="no"?>
<!-- Created with Inkscape (http://www.inkscape.org/) -->

<svg
   width="618.16669mm"
   height="127mm"
   viewBox="0 0 618.16669 127"
   version="1.1"
   id="svg5"
   inkscape:version="1.3 (0e150ed6c4, 2023-07-21)"
   sodipodi:docname="rive_branding.svg"
   xmlns:inkscape="http://www.inkscape.org/namespaces/inkscape"
   xmlns:sodipodi="http://sodipodi.sourceforge.net/DTD/sodipodi-0.dtd"
   xmlns="http://www.w3.org/2000/svg"
   xmlns:svg="http://www.w3.org/2000/svg">
  <sodipodi:namedview
     id="namedview7"
     pagecolor="#b6b6b6"
     bordercolor="#666666"
     borderopacity="1.0"
     inkscape:pageshadow="2"
     inkscape:pageopacity="0"
     inkscape:pagecheckerboard="false"
     inkscape:document-units="mm"
     showgrid="false"
     inkscape:zoom="1.1911879"
     inkscape:cx="95.702784"
     inkscape:cy="175.4551"
     inkscape:window-width="1920"
     inkscape:window-height="1006"
     inkscape:window-x="0"
     inkscape:window-y="0"
     inkscape:window-maximized="1"
     inkscape:current-layer="layer2"
     inkscape:snap-bbox="true"
     inkscape:snap-bbox-midpoints="true"
     inkscape:object-nodes="true"
     inkscape:snap-nodes="true"
     inkscape:snap-grids="true"
     inkscape:snap-page="false"
     inkscape:snap-midpoints="false"
     inkscape:snap-others="false"
     inkscape:snap-object-midpoints="true"
     showguides="true"
     scale-x="1"
     viewbox-width="127"
     viewbox-height="127"
     showborder="true"
     borderlayer="false"
     inkscape:showpageshadow="true"
     inkscape:deskcolor="#b6b6b6">
    <inkscape:grid
       type="xygrid"
       id="grid301"
       spacingx="1.0583333"
       spacingy="1.0583333"
       originx="1.531554e-05"
       originy="1.0813315e-05"
       color="#000000"
       opacity="0.06666667"
       empcolor="#000000"
       empopacity="0.06666667"
       units="mm"
       visible="false" />
    <inkscape:page
       x="5.1315146e-06"
       y="0"
       width="127"
       height="127"
       id="page1"
       margin="0"
       bleed="0" />
    <inkscape:page
       x="148.16666"
       y="0"
       width="470.00003"
       height="127"
       id="page2"
       margin="0"
       bleed="0"
       inkscape:export-filename="rive_banner.png"
       inkscape:export-xdpi="96"
       inkscape:export-ydpi="96" />
  </sodipodi:namedview>
  <defs
     id="defs2" />
  <g
     inkscape:label="Banner"
     inkscape:groupmode="layer"
     id="layer1"
     style="display:inline">
    <rect
       style="display:inline;fill:#130f1a;fill-opacity:1;stroke:#1d1726;stroke-width:0.99502;stroke-dasharray:none;stroke-opacity:1"
       id="rect1380-8"
       width="469.00497"
       height="126.00498"
       x="148.66415"
       y="0.49750999"
       inkscape:label="Background"
       ry="15.874642" />
    <text
       xml:space="preserve"
       style="font-style:normal;font-variant:normal;font-weight:900;font-stretch:normal;font-size:22.5778px;font-family:Nunito;-inkscape-font-specification:'Nunito Heavy';display:inline;fill:#ffffff;fill-opacity:1;stroke-width:0.156822"
       x="294.36697"
       y="88.919044"
       id="text1059-3"
       inkscape:label="Slogan"><tspan
         sodipodi:role="line"
         id="tspan1057-6"
         style="font-style:normal;font-variant:normal;font-weight:normal;font-stretch:normal;font-size:22.5778px;font-family:Nunito;-inkscape-font-specification:Nunito;fill:#ffffff;fill-opacity:1;stroke-width:0.156822"
         x="294.36697"
         y="88.919044">A Rust ecosystem for Revolt.</tspan></text>
    <text
       xml:space="preserve"
       style="display:inline;font-style:normal;font-variant:normal;font-weight:900;font-stretch:normal;font-size:32.4556px;font-family:Nunito;-inkscape-font-specification:'Nunito Heavy';fill:#ffffff;fill-opacity:1;stroke-width:0.156822"
       x="293.35098"
       y="57.616398"
       id="text1059"
       inkscape:label="Title"><tspan
         sodipodi:role="line"
         id="tspan1057"
         style="font-style:normal;font-variant:normal;font-weight:800;font-stretch:normal;font-size:32.4556px;font-family:Nunito;-inkscape-font-specification:'Nunito Ultra-Bold';fill:#ffffff;fill-opacity:1;stroke-width:0.156822"
         x="293.35098"
         y="57.616398">Rive</tspan></text>
    <path
       d="m 181.24685,66.085713 q 0,-1.853914 1.36604,-3.75662 1.36605,-1.902699 3.51269,-3.073593 1.95149,-0.780602 3.95177,-1.951495 2.00028,-1.170896 4.63479,-1.170896 4.78115,0 7.26931,2.732091 2.48815,2.732088 6.4887,2.732088 4.09814,0 6.68386,-2.732088 2.58573,-2.732091 7.36688,-2.732091 4.78115,0 7.36688,2.732091 2.58572,2.732088 6.58628,2.732088 4.09813,0 6.63507,-2.732088 2.53694,-2.732091 7.31809,-2.732091 2.63451,0 4.68358,1.170896 2.04906,1.170893 4.00054,2.049069 2.14665,1.073321 3.4639,2.976019 1.31726,1.902705 1.31726,3.75662 0,1.756343 -1.17089,2.829664 -1.17089,1.073322 -2.63451,0.487903 -2.73208,-0.878196 -4.73236,-2.439392 -2.00028,-1.561196 -4.92752,-1.561196 -4.00056,0 -6.58628,2.73209 -2.58573,2.73209 -7.36688,2.73209 -4.68358,0 -7.31809,-2.73209 -2.63452,-2.73209 -6.63507,-2.73209 -3.80541,0 -6.48871,2.73209 -2.6833,2.73209 -7.46445,2.73209 -4.68358,0 -7.36688,-2.73209 -2.6833,-2.73209 -6.48871,-2.73209 -2.92724,0 -4.92751,1.561196 -2.00029,1.561196 -4.6348,2.439362 -1.46362,0.585485 -2.6833,-0.487904 -1.21968,-1.07332 -1.21968,-2.829663 z m 0,19.027041 q 0,-1.853916 1.36604,-3.805413 1.36605,-1.951487 3.51269,-3.122382 1.95149,-0.780594 3.95177,-1.902706 2.00028,-1.122103 4.63479,-1.122103 4.78115,0 7.26931,2.732089 2.48815,2.732082 6.4887,2.732082 4.09814,0 6.68386,-2.732082 2.58573,-2.732089 7.36688,-2.732089 4.78115,0 7.36688,2.732089 2.58572,2.732082 6.58628,2.732082 4.09813,0 6.63507,-2.732082 2.53694,-2.732089 7.31809,-2.732089 2.63451,0 4.68358,1.122103 2.04906,1.122112 4.00054,2.00028 2.14665,1.170895 3.4639,3.024808 1.31726,1.853917 1.31726,3.805413 0,1.756342 -1.17089,2.780873 -1.17089,1.024531 -2.63451,0.439076 -2.73208,-0.878167 -4.73236,-2.439363 -2.00028,-1.561188 -4.92752,-1.561188 -4.00056,0 -6.58628,2.732082 -2.58573,2.732098 -7.36688,2.732098 -4.68358,0 -7.31809,-2.73209 -2.63452,-2.732083 -6.63507,-2.732083 -3.80541,0 -6.58628,2.732083 -2.78088,2.73209 -7.46446,2.73209 -4.68358,0 -7.31809,-2.73209 -2.63451,-2.732083 -6.43992,-2.732083 -2.92724,0 -4.92751,1.561188 -2.00029,1.561195 -4.6348,2.439363 -1.46362,0.585485 -2.6833,-0.439078 -1.21968,-1.024537 -1.21968,-2.780878 z m 0,-37.956501 q 0,-1.853916 1.36604,-3.805404 1.36605,-1.951495 3.51269,-3.122391 1.95149,-0.780594 3.95177,-1.902704 2.00028,-1.122104 4.63479,-1.122104 4.78115,0 7.26931,2.732089 2.48815,2.732082 6.4887,2.732082 4.09814,0 6.68386,-2.732082 2.58573,-2.732089 7.36688,-2.732089 4.78115,0 7.36688,2.732089 2.58572,2.732082 6.58628,2.732082 4.09813,0 6.63507,-2.732082 2.53694,-2.732089 7.31809,-2.732089 2.63451,0 4.68358,1.122104 2.04906,1.122111 4.00054,2.000278 2.14665,1.170896 3.4639,3.024818 1.31726,1.853914 1.31726,3.805404 0,1.756342 -1.17089,2.780873 -1.17089,1.024538 -2.63451,0.439076 -2.73208,-0.878161 -4.73236,-2.439356 -2.00028,-1.561189 -4.92752,-1.561189 -4.00056,0 -6.58628,2.732084 -2.58573,2.73209 -7.36688,2.73209 -4.68358,0 -7.31809,-2.73209 -2.63452,-2.732084 -6.63507,-2.732084 -3.80541,0 -6.48871,2.732084 -2.6833,2.73209 -7.46445,2.73209 -4.68358,0 -7.36688,-2.73209 -2.6833,-2.732084 -6.48871,-2.732084 -2.92724,0 -4.92751,1.561189 -2.00029,1.561195 -4.6348,2.439371 -1.46362,0.585484 -2.6833,-0.439077 -1.21968,-1.024531 -1.21968,-2.780874 z"
       id="path1180-7"
       style="display:inline;fill:#9950ff;fill-opacity:1;stroke-width:0;stroke-dasharray:none"
       inkscape:label="Icon" />
  </g>
  <g
     inkscape:groupmode="layer"
     id="layer2"
     inkscape:label="Logo">
    <rect
       style="display:inline;fill:#130f1a;fill-opacity:1;stroke-width:1;stroke-dasharray:none"
       id="rect1380"
       width="127"
       height="127"
       x="0"
       y="0"
       inkscape:label="Background"
       ry="16" />
    <path
       d="m 22.177182,66.085722 q 0,-1.853914 1.366044,-3.75662 1.366044,-1.902699 3.512683,-3.073593 1.951492,-0.780602 3.951769,-1.951495 2.000279,-1.170896 4.634792,-1.170896 4.781152,0 7.269304,2.732091 2.488151,2.732088 6.488707,2.732088 4.098132,0 6.683857,-2.732088 2.585725,-2.732091 7.366878,-2.732091 4.781153,0 7.366879,2.732091 2.585725,2.732088 6.586282,2.732088 4.098131,0 6.63507,-2.732088 2.536938,-2.732091 7.318094,-2.732091 2.634508,0 4.683578,1.170896 2.049061,1.170893 4.000541,2.049069 2.14665,1.073321 3.4639,2.976019 1.31726,1.902705 1.31726,3.75662 0,1.756343 -1.17089,2.829664 -1.17089,1.073322 -2.63451,0.487903 -2.732085,-0.878196 -4.732365,-2.439392 -2.00028,-1.561196 -4.927515,-1.561196 -4.000561,0 -6.586285,2.73209 -2.585726,2.73209 -7.36688,2.73209 -4.683577,0 -7.31809,-2.73209 -2.634513,-2.73209 -6.635069,-2.73209 -3.805408,0 -6.488709,2.73209 -2.6833,2.73209 -7.464452,2.73209 -4.683578,0 -7.366878,-2.73209 -2.683301,-2.73209 -6.488709,-2.73209 -2.927236,0 -4.927514,1.561196 -2.000279,1.561196 -4.634791,2.439362 -1.463619,0.585485 -2.683301,-0.487904 -1.219682,-1.07332 -1.219682,-2.829663 z m 0,19.027041 q 0,-1.853916 1.366044,-3.805413 1.366044,-1.951487 3.512683,-3.122382 1.951492,-0.780594 3.951769,-1.902706 2.000279,-1.122103 4.634792,-1.122103 4.781152,0 7.269304,2.732089 2.488151,2.732082 6.488707,2.732082 4.098132,0 6.683857,-2.732082 2.585725,-2.732089 7.366878,-2.732089 4.781153,0 7.366879,2.732089 2.585725,2.732082 6.586282,2.732082 4.098131,0 6.63507,-2.732082 2.536938,-2.732089 7.318094,-2.732089 2.634508,0 4.683578,1.122103 2.049061,1.122112 4.000541,2.00028 2.14665,1.170895 3.4639,3.024808 1.31726,1.853917 1.31726,3.805413 0,1.756342 -1.17089,2.780873 -1.17089,1.024531 -2.63451,0.439076 -2.732085,-0.878167 -4.732365,-2.439363 -2.00028,-1.561188 -4.927515,-1.561188 -4.000561,0 -6.586285,2.732082 -2.585726,2.732098 -7.36688,2.732098 -4.683577,0 -7.31809,-2.73209 -2.634513,-2.732083 -6.635069,-2.732083 -3.805408,0 -6.586282,2.732083 -2.780873,2.73209 -7.464454,2.73209 -4.683578,0 -7.31809,-2.73209 -2.634514,-2.732083 -6.439921,-2.732083 -2.927237,0 -4.927514,1.561188 -2.000279,1.561195 -4.634791,2.439363 -1.463619,0.585485 -2.683301,-0.439078 -1.219682,-1.024537 -1.219681,-2.780878 z m 0,-37.956501 q 0,-1.853916 1.366044,-3.805404 1.366044,-1.951495 3.512683,-3.122391 1.951492,-0.780594 3.951769,-1.902704 2.000279,-1.122104 4.634792,-1.122104 4.781152,0 7.269304,2.732089 2.488151,2.732082 6.488707,2.732082 4.098132,0 6.683857,-2.732082 2.585725,-2.732089 7.366878,-2.732089 4.781153,0 7.366879,2.732089 2.585725,2.732082 6.586282,2.732082 4.098131,0 6.63507,-2.732082 2.536938,-2.732089 7.318094,-2.732089 2.634508,0 4.683578,1.122104 2.049061,1.122111 4.000541,2.000278 2.14665,1.170896 3.4639,3.024818 1.31726,1.853914 1.31726,3.805404 0,1.756342 -1.17089,2.780873 -1.17089,1.024538 -2.63451,0.439076 -2.732085,-0.878161 -4.732365,-2.439356 -2.00028,-1.561189 -4.927515,-1.561189 -4.000561,0 -6.586285,2.732084 -2.585726,2.73209 -7.36688,2.73209 -4.683577,0 -7.31809,-2.73209 -2.634513,-2.732084 -6.635069,-2.732084 -3.805408,0 -6.488709,2.732084 -2.6833,2.73209 -7.464452,2.73209 -4.683578,0 -7.366878,-2.73209 -2.683301,-2.732084 -6.488709,-2.732084 -2.927236,0 -4.927514,1.561189 -2.000279,1.561195 -4.634791,2.439371 -1.463619,0.585484 -2.683301,-0.439077 -1.219682,-1.024531 -1.219682,-2.780874 z"
       id="path1180"
       style="display:inline;fill:#9950ff;fill-opacity:1;stroke-width:0;stroke-dasharray:none"
       inkscape:label="Icon" />
  </g>
</svg>
