<?xml version="1.0" encoding="UTF-8" standalone="no"?>
<!-- Created with Inkscape (http://www.inkscape.org/) -->

<svg
   width="618.16669mm"
   height="127mm"
   viewBox="0 0 618.16669 127"
   version="1.1"
   id="svg5"
   inkscape:version="1.3 (0e150ed6c4, 2023-07-21)"
   sodipodi:docname="rive_branding.svg"
   xmlns:inkscape="http://www.inkscape.org/namespaces/inkscape"
   xmlns:sodipodi="http://sodipodi.sourceforge.net/DTD/sodipodi-0.dtd"
   xmlns="http://www.w3.org/2000/svg"
   xmlns:svg="http://www.w3.org/2000/svg">
  <sodipodi:namedview
     id="namedview7"
     pagecolor="#b6b6b6"
     bordercolor="#666666"
     borderopacity="1.0"
     inkscape:pageshadow="2"
     inkscape:pageopacity="0"
     inkscape:pagecheckerboard="false"
     inkscape:document-units="mm"
     showgrid="false"
     inkscape:zoom="0.29779698"
     inkscape:cx="1506.0596"
     inkscape:cy="789.12823"
     inkscape:window-width="1920"
     inkscape:window-height="1006"
     inkscape:window-x="0"
     inkscape:window-y="0"
     inkscape:window-maximized="1"
     inkscape:current-layer="layer2"
     inkscape:snap-bbox="true"
     inkscape:snap-bbox-midpoints="true"
     inkscape:object-nodes="true"
     inkscape:snap-nodes="true"
     inkscape:snap-grids="true"
     inkscape:snap-page="false"
     inkscape:snap-midpoints="false"
     inkscape:snap-others="false"
     inkscape:snap-object-midpoints="true"
     showguides="true"
     scale-x="1"
     viewbox-width="127"
     viewbox-height="127"
     showborder="true"
     borderlayer="false"
     inkscape:showpageshadow="true"
     inkscape:deskcolor="#b6b6b6">
    <inkscape:grid
       type="xygrid"
       id="grid301"
       spacingx="1.0583333"
       spacingy="1.0583333"
       originx="1.531554e-05"
       originy="1.0813315e-05"
       color="#000000"
       opacity="0.06666667"
       empcolor="#000000"
       empopacity="0.06666667"
       units="mm"
       visible="false" />
    <inkscape:page
       x="5.1315146e-06"
       y="0"
       width="127"
       height="127"
       id="page1"
       margin="0"
       bleed="0" />
    <inkscape:page
       x="148.16666"
       y="0"
       width="470.00003"
       height="127"
       id="page2"
       margin="0"
       bleed="0"
       inkscape:export-filename="rive_banner.png"
       inkscape:export-xdpi="96"
       inkscape:export-ydpi="96" />
    <inkscape:page
       x="0"
       y="150.15123"
       width="232.00002"
       height="120"
       id="page3"
       margin="0"
       bleed="0"
       inkscape:export-filename="../../../Documents/rvlt-bannr-servr.png"
       inkscape:export-xdpi="96"
       inkscape:export-ydpi="96" />
  </sodipodi:namedview>
  <defs
     id="defs2">
    <filter
       style="color-interpolation-filters:sRGB;"
       inkscape:label="Drop Shadow"
       id="filter78"
       x="-0.031034507"
       y="-0.05999978"
       width="1.062069"
       height="1.1199996">
      <feFlood
         result="flood"
         in="SourceGraphic"
         flood-opacity="0.749020"
         flood-color="rgb(255,190,255)"
         id="feFlood77" />
      <feGaussianBlur
         result="blur"
         in="SourceGraphic"
         stdDeviation="3.000000"
         id="feGaussianBlur77" />
      <feOffset
         result="offset"
         in="blur"
         dx="0.000000"
         dy="0.000000"
         id="feOffset77" />
      <feComposite
         result="comp1"
         operator="in"
         in="offset"
         in2="flood"
         id="feComposite77" />
      <feComposite
         result="comp2"
         operator="over"
         in="SourceGraphic"
         in2="comp1"
         id="feComposite78" />
    </filter>
  </defs>
  <g
     inkscape:label="Banner"
     inkscape:groupmode="layer"
     id="layer1"
     style="display:inline">
    <rect
       style="display:inline;fill:#130f1a;fill-opacity:1;stroke:#1d1726;stroke-width:0.99502;stroke-dasharray:none;stroke-opacity:1"
       id="rect1380-8"
       width="469.00497"
       height="126.00498"
       x="148.66415"
       y="0.49750999"
       inkscape:label="Background"
       ry="15.874642" />
    <text
       xml:space="preserve"
       style="font-style:normal;font-variant:normal;font-weight:900;font-stretch:normal;font-size:22.5778px;font-family:Nunito;-inkscape-font-specification:'Nunito Heavy';display:inline;fill:#ffffff;fill-opacity:1;stroke-width:0.156822"
       x="294.36697"
       y="88.919044"
       id="text1059-3"
       inkscape:label="Slogan"><tspan
         sodipodi:role="line"
         id="tspan1057-6"
         style="font-style:normal;font-variant:normal;font-weight:normal;font-stretch:normal;font-size:22.5778px;font-family:Nunito;-inkscape-font-specification:Nunito;fill:#ffffff;fill-opacity:1;stroke-width:0.156822"
         x="294.36697"
         y="88.919044">A Rust ecosystem for Revolt.</tspan></text>
    <text
       xml:space="preserve"
       style="display:inline;font-style:normal;font-variant:normal;font-weight:900;font-stretch:normal;font-size:32.4556px;font-family:Nunito;-inkscape-font-specification:'Nunito Heavy';fill:#ffffff;fill-opacity:1;stroke-width:0.156822"
       x="293.35098"
       y="57.616398"
       id="text1059"
       inkscape:label="Title"><tspan
         sodipodi:role="line"
         id="tspan1057"
         style="font-style:normal;font-variant:normal;font-weight:800;font-stretch:normal;font-size:32.4556px;font-family:Nunito;-inkscape-font-specification:'Nunito Ultra-Bold';fill:#ffffff;fill-opacity:1;stroke-width:0.156822"
         x="293.35098"
         y="57.616398">Rive</tspan></text>
    <path
       d="m 181.24685,66.085713 q 0,-1.853914 1.36604,-3.75662 1.36605,-1.902699 3.51269,-3.073593 1.95149,-0.780602 3.95177,-1.951495 2.00028,-1.170896 4.63479,-1.170896 4.78115,0 7.26931,2.732091 2.48815,2.732088 6.4887,2.732088 4.09814,0 6.68386,-2.732088 2.58573,-2.732091 7.36688,-2.732091 4.78115,0 7.36688,2.732091 2.58572,2.732088 6.58628,2.732088 4.09813,0 6.63507,-2.732088 2.53694,-2.732091 7.31809,-2.732091 2.63451,0 4.68358,1.170896 2.04906,1.170893 4.00054,2.049069 2.14665,1.073321 3.4639,2.976019 1.31726,1.902705 1.31726,3.75662 0,1.756343 -1.17089,2.829664 -1.17089,1.073322 -2.63451,0.487903 -2.73208,-0.878196 -4.73236,-2.439392 -2.00028,-1.561196 -4.92752,-1.561196 -4.00056,0 -6.58628,2.73209 -2.58573,2.73209 -7.36688,2.73209 -4.68358,0 -7.31809,-2.73209 -2.63452,-2.73209 -6.63507,-2.73209 -3.80541,0 -6.48871,2.73209 -2.6833,2.73209 -7.46445,2.73209 -4.68358,0 -7.36688,-2.73209 -2.6833,-2.73209 -6.48871,-2.73209 -2.92724,0 -4.92751,1.561196 -2.00029,1.561196 -4.6348,2.439362 -1.46362,0.585485 -2.6833,-0.487904 -1.21968,-1.07332 -1.21968,-2.829663 z m 0,19.027041 q 0,-1.853916 1.36604,-3.805413 1.36605,-1.951487 3.51269,-3.122382 1.95149,-0.780594 3.95177,-1.902706 2.00028,-1.122103 4.63479,-1.122103 4.78115,0 7.26931,2.732089 2.48815,2.732082 6.4887,2.732082 4.09814,0 6.68386,-2.732082 2.58573,-2.732089 7.36688,-2.732089 4.78115,0 7.36688,2.732089 2.58572,2.732082 6.58628,2.732082 4.09813,0 6.63507,-2.732082 2.53694,-2.732089 7.31809,-2.732089 2.63451,0 4.68358,1.122103 2.04906,1.122112 4.00054,2.00028 2.14665,1.170895 3.4639,3.024808 1.31726,1.853917 1.31726,3.805413 0,1.756342 -1.17089,2.780873 -1.17089,1.024531 -2.63451,0.439076 -2.73208,-0.878167 -4.73236,-2.439363 -2.00028,-1.561188 -4.92752,-1.561188 -4.00056,0 -6.58628,2.732082 -2.58573,2.732098 -7.36688,2.732098 -4.68358,0 -7.31809,-2.73209 -2.63452,-2.732083 -6.63507,-2.732083 -3.80541,0 -6.58628,2.732083 -2.78088,2.73209 -7.46446,2.73209 -4.68358,0 -7.31809,-2.73209 -2.63451,-2.732083 -6.43992,-2.732083 -2.92724,0 -4.92751,1.561188 -2.00029,1.561195 -4.6348,2.439363 -1.46362,0.585485 -2.6833,-0.439078 -1.21968,-1.024537 -1.21968,-2.780878 z m 0,-37.956501 q 0,-1.853916 1.36604,-3.805404 1.36605,-1.951495 3.51269,-3.122391 1.95149,-0.780594 3.95177,-1.902704 2.00028,-1.122104 4.63479,-1.122104 4.78115,0 7.26931,2.732089 2.48815,2.732082 6.4887,2.732082 4.09814,0 6.68386,-2.732082 2.58573,-2.732089 7.36688,-2.732089 4.78115,0 7.36688,2.732089 2.58572,2.732082 6.58628,2.732082 4.09813,0 6.63507,-2.732082 2.53694,-2.732089 7.31809,-2.732089 2.63451,0 4.68358,1.122104 2.04906,1.122111 4.00054,2.000278 2.14665,1.170896 3.4639,3.024818 1.31726,1.853914 1.31726,3.805404 0,1.756342 -1.17089,2.780873 -1.17089,1.024538 -2.63451,0.439076 -2.73208,-0.878161 -4.73236,-2.439356 -2.00028,-1.561189 -4.92752,-1.561189 -4.00056,0 -6.58628,2.732084 -2.58573,2.73209 -7.36688,2.73209 -4.68358,0 -7.31809,-2.73209 -2.63452,-2.732084 -6.63507,-2.732084 -3.80541,0 -6.48871,2.732084 -2.6833,2.73209 -7.46445,2.73209 -4.68358,0 -7.36688,-2.73209 -2.6833,-2.732084 -6.48871,-2.732084 -2.92724,0 -4.92751,1.561189 -2.00029,1.561195 -4.6348,2.439371 -1.46362,0.585484 -2.6833,-0.439077 -1.21968,-1.024531 -1.21968,-2.780874 z"
       id="path1180-7"
       style="display:inline;fill:#9950ff;fill-opacity:1;stroke-width:0;stroke-dasharray:none"
       inkscape:label="Icon" />
    <rect
       style="display:inline;fill:#130f1a;fill-opacity:1;stroke:#1d1726;stroke-width:0;stroke-dasharray:none;stroke-opacity:1"
       id="rect1380-8-3"
       width="232"
       height="120"
       x="1.0585665e-09"
       y="150.15123"
       inkscape:label="Background"
       ry="0" />
  </g>
  <g
     inkscape:groupmode="layer"
     id="layer2"
     inkscape:label="Logo">
    <rect
       style="display:inline;fill:#130f1a;fill-opacity:1;stroke-width:1;stroke-dasharray:none"
       id="rect1380"
       width="127"
       height="127"
       x="0"
       y="0"
       inkscape:label="Background"
       ry="16" />
    <path
       d="m 22.177182,66.085722 q 0,-1.853914 1.366044,-3.75662 1.366044,-1.902699 3.512683,-3.073593 1.951492,-0.780602 3.951769,-1.951495 2.000279,-1.170896 4.634792,-1.170896 4.781152,0 7.269304,2.732091 2.488151,2.732088 6.488707,2.732088 4.098132,0 6.683857,-2.732088 2.585725,-2.732091 7.366878,-2.732091 4.781153,0 7.366879,2.732091 2.585725,2.732088 6.586282,2.732088 4.098131,0 6.63507,-2.732088 2.536938,-2.732091 7.318094,-2.732091 2.634508,0 4.683578,1.170896 2.049061,1.170893 4.000541,2.049069 2.14665,1.073321 3.4639,2.976019 1.31726,1.902705 1.31726,3.75662 0,1.756343 -1.17089,2.829664 -1.17089,1.073322 -2.63451,0.487903 -2.732085,-0.878196 -4.732365,-2.439392 -2.00028,-1.561196 -4.927515,-1.561196 -4.000561,0 -6.586285,2.73209 -2.585726,2.73209 -7.36688,2.73209 -4.683577,0 -7.31809,-2.73209 -2.634513,-2.73209 -6.635069,-2.73209 -3.805408,0 -6.488709,2.73209 -2.6833,2.73209 -7.464452,2.73209 -4.683578,0 -7.366878,-2.73209 -2.683301,-2.73209 -6.488709,-2.73209 -2.927236,0 -4.927514,1.561196 -2.000279,1.561196 -4.634791,2.439362 -1.463619,0.585485 -2.683301,-0.487904 -1.219682,-1.07332 -1.219682,-2.829663 z m 0,19.027041 q 0,-1.853916 1.366044,-3.805413 1.366044,-1.951487 3.512683,-3.122382 1.951492,-0.780594 3.951769,-1.902706 2.000279,-1.122103 4.634792,-1.122103 4.781152,0 7.269304,2.732089 2.488151,2.732082 6.488707,2.732082 4.098132,0 6.683857,-2.732082 2.585725,-2.732089 7.366878,-2.732089 4.781153,0 7.366879,2.732089 2.585725,2.732082 6.586282,2.732082 4.098131,0 6.63507,-2.732082 2.536938,-2.732089 7.318094,-2.732089 2.634508,0 4.683578,1.122103 2.049061,1.122112 4.000541,2.00028 2.14665,1.170895 3.4639,3.024808 1.31726,1.853917 1.31726,3.805413 0,1.756342 -1.17089,2.780873 -1.17089,1.024531 -2.63451,0.439076 -2.732085,-0.878167 -4.732365,-2.439363 -2.00028,-1.561188 -4.927515,-1.561188 -4.000561,0 -6.586285,2.732082 -2.585726,2.732098 -7.36688,2.732098 -4.683577,0 -7.31809,-2.73209 -2.634513,-2.732083 -6.635069,-2.732083 -3.805408,0 -6.586282,2.732083 -2.780873,2.73209 -7.464454,2.73209 -4.683578,0 -7.31809,-2.73209 -2.634514,-2.732083 -6.439921,-2.732083 -2.927237,0 -4.927514,1.561188 -2.000279,1.561195 -4.634791,2.439363 -1.463619,0.585485 -2.683301,-0.439078 -1.219682,-1.024537 -1.219681,-2.780878 z m 0,-37.956501 q 0,-1.853916 1.366044,-3.805404 1.366044,-1.951495 3.512683,-3.122391 1.951492,-0.780594 3.951769,-1.902704 2.000279,-1.122104 4.634792,-1.122104 4.781152,0 7.269304,2.732089 2.488151,2.732082 6.488707,2.732082 4.098132,0 6.683857,-2.732082 2.585725,-2.732089 7.366878,-2.732089 4.781153,0 7.366879,2.732089 2.585725,2.732082 6.586282,2.732082 4.098131,0 6.63507,-2.732082 2.536938,-2.732089 7.318094,-2.732089 2.634508,0 4.683578,1.122104 2.049061,1.122111 4.000541,2.000278 2.14665,1.170896 3.4639,3.024818 1.31726,1.853914 1.31726,3.805404 0,1.756342 -1.17089,2.780873 -1.17089,1.024538 -2.63451,0.439076 -2.732085,-0.878161 -4.732365,-2.439356 -2.00028,-1.561189 -4.927515,-1.561189 -4.000561,0 -6.586285,2.732084 -2.585726,2.73209 -7.36688,2.73209 -4.683577,0 -7.31809,-2.73209 -2.634513,-2.732084 -6.635069,-2.732084 -3.805408,0 -6.488709,2.732084 -2.6833,2.73209 -7.464452,2.73209 -4.683578,0 -7.366878,-2.73209 -2.683301,-2.732084 -6.488709,-2.732084 -2.927236,0 -4.927514,1.561189 -2.000279,1.561195 -4.634791,2.439371 -1.463619,0.585484 -2.683301,-0.439077 -1.219682,-1.024531 -1.219682,-2.780874 z"
       id="path1180"
       style="display:inline;fill:#9950ff;fill-opacity:1;stroke-width:0;stroke-dasharray:none"
       inkscape:label="Icon" />
    <path
       id="path1180-6"
       style="color:#000000;fill:#9950ff;fill-opacity:1;stroke:none;stroke-width:1.9;stroke-linecap:square;stroke-dasharray:none;stroke-opacity:1;filter:url(#filter78)"
       d="m 89.467924,150.15104 c -2.899962,1.54461 -5.405257,3.39155 -7.454325,5.58312 -4.932591,5.27572 -11.789705,8.53114 -20.675741,9.75031 -8.668807,1.18936 -15.917981,-0.12571 -21.855513,-3.90415 -6.277914,-3.99506 -14.757881,-5.21093 -25.36331,-3.75584 C 8.7062499,158.5671 4.0190996,160.09092 0,162.32756 v 1.57406 l 0.34364827,-0.19637 C 4.260852,161.46544 8.8923358,159.94193 14.30662,159.19907 c 10.403491,-1.42739 18.522223,-0.20642 24.429517,3.55275 6.247668,3.97585 13.881285,5.33023 22.791374,4.10776 9.121616,-1.25149 16.322588,-4.63862 21.499979,-10.17612 2.40459,-2.57185 5.461364,-4.68639 9.1736,-6.35155 l 0.40411,-0.18087 z m 41.288956,0 0.24494,0.14573 c 6.39984,3.80917 14.03196,5.10555 22.81463,3.90054 4.90227,-0.67261 9.2114,-1.97622 12.95528,-3.87884 l 0.32918,-0.16743 h -3.33261 c -3.01874,1.24804 -6.38215,2.15535 -10.1415,2.67116 -7.64904,1.04947 -14.26895,0.13539 -19.95279,-2.67116 z m 74.87398,5.38779 c -1.5311,0.0384 -3.11251,0.17097 -4.7439,0.3948 -8.91009,1.22247 -16.0056,4.59624 -21.1801,10.13065 -4.91217,5.25387 -12.52428,8.63142 -22.9278,10.05882 -10.18702,1.39769 -18.36358,0.19062 -24.60522,-3.53932 -6.56154,-3.9211 -14.34587,-5.25532 -23.25594,-4.03283 -8.48751,1.16451 -15.469268,4.52973 -20.849374,10.08001 -5.130249,5.2925 -12.854508,8.68365 -23.258012,10.11101 -10.187022,1.39768 -18.419822,0.19777 -24.771614,-3.52123 -6.659153,-3.89903 -14.280076,-5.26037 -22.767603,-4.09588 -6.525529,0.89532 -11.8895859,3.00108 -16.0429482,6.34173 C 0.85415283,187.76755 0.42352961,188.06864 0,188.37351 v 1.72445 l 0.41186117,-0.30283 c 0.54201236,-0.3989 1.12751343,-0.7975 1.68568523,-1.24643 3.9206608,-3.15352 9.0242576,-5.17927 15.3613366,-6.04873 8.233861,-1.12969 15.495212,0.18045 21.878768,3.91811 6.690915,3.91755 15.269368,5.12496 25.662516,3.699 10.605425,-1.45506 18.657753,-4.94179 24.066231,-10.52132 5.158648,-5.32181 11.807302,-8.54054 20.041152,-9.67021 8.66879,-1.18939 16.08637,0.10493 22.35316,3.84989 6.58666,3.93614 15.11487,5.14874 25.508,3.72277 10.60543,-1.4551 18.55423,-4.92529 23.75204,-10.48463 4.93551,-5.27884 11.6845,-8.51548 20.35328,-9.70484 6.33712,-0.86942 11.79353,-0.29479 16.4083,1.68724 4.26946,1.8337 9.13497,3.07645 14.51746,3.8101 v -1.40611 c -5.20687,-0.72359 -9.8902,-1.92771 -13.96865,-3.67936 -3.66759,-1.57521 -7.80702,-2.29703 -12.40028,-2.18178 z m 6.02754,24.75404 c -1.01951,-0.0287 -2.05528,-0.019 -3.10937,0.0295 -1.40548,0.0645 -2.8421,0.1972 -4.30878,0.39842 -10.60541,1.45508 -18.50303,4.91904 -23.59546,10.46861 -4.82382,5.25682 -11.62589,8.50378 -20.51193,9.72292 -8.66878,1.18939 -16.03073,-0.11118 -22.18779,-3.86746 -6.48615,-3.95711 -15.06795,-5.16029 -25.67337,-3.7052 -10.60541,1.4551 -18.554221,4.92525 -23.752039,10.48463 -4.93259,5.27571 -11.789704,8.53064 -20.67574,9.74979 C 59.175148,214.76346 51.923883,213.4484 45.98634,209.66993 39.70841,205.67477 31.230498,204.459 20.625098,205.91409 14.758415,206.71902 9.7018503,208.43717 5.4787354,211.0838 3.6515841,212.22892 1.8259747,213.2848 0,214.29652 v 1.59629 l 0.33382975,-0.18397 c 1.95694325,-1.07709 3.91708715,-2.2182 5.88077795,-3.44889 4.0297653,-2.52547 8.8899623,-4.18736 14.5996253,-4.97075 10.403519,-1.42739 18.520682,-0.20654 24.427967,3.55275 6.247651,3.97581 13.880737,5.32973 22.790857,4.10724 9.121619,-1.25151 16.322589,-4.6381 21.499979,-10.1756 4.912166,-5.2539 12.524284,-8.63142 22.927804,-10.05882 10.4035,-1.42738 18.63193,-0.22296 24.75972,3.51555 6.45693,3.93915 14.19184,5.2791 23.10195,4.0566 9.12162,-1.2515 16.27376,-4.63105 21.34547,-10.15804 4.8032,-5.23434 12.35842,-8.60406 22.76192,-10.03143 1.42744,-0.19584 2.82028,-0.32611 4.18166,-0.3886 1.02098,-0.0469 2.02353,-0.0566 3.00756,-0.0289 2.95207,0.0833 5.73739,0.50261 8.36125,1.25367 4.11899,1.17899 8.11236,2.14831 12.01942,2.97914 v -1.42265 c -3.78807,-0.8115 -7.65146,-1.74961 -11.6365,-2.89026 -2.74261,-0.78507 -5.64629,-1.22061 -8.70489,-1.3069 z m 0.5116,23.58409 c -1.5311,0.0384 -3.11302,0.16891 -4.74442,0.39274 -8.91011,1.22251 -16.00512,4.60032 -21.17958,10.13478 -4.91221,5.25388 -12.52223,8.62886 -22.92574,10.05624 -10.18703,1.39769 -18.36565,0.19109 -24.60728,-3.5388 -6.56151,-3.92115 -14.34584,-5.25584 -23.25594,-4.03335 -8.48755,1.16452 -15.469267,4.5297 -20.849378,10.08001 -5.130264,5.29251 -12.852442,8.68412 -23.255945,10.11152 -10.187022,1.39769 -18.4219,0.1973 -24.773682,-3.52175 -6.659154,-3.89899 -14.280074,-5.25987 -22.767602,-4.09535 -6.525534,0.89531 -11.889586,3.00104 -16.0429485,6.34173 C 5.461211,237.6597 2.8416953,239.33277 0,240.87574 v 1.59215 l 0.32814535,-0.17467 c 3.03549005,-1.62568 5.82843055,-3.4116 8.30853675,-5.40639 3.9206599,-3.15348 9.0242609,-5.17927 15.3613359,-6.04872 8.233867,-1.12972 15.495211,0.17993 21.878768,3.91759 6.690933,3.91758 15.269365,5.12548 25.662517,3.69951 10.605425,-1.4551 18.657763,-4.94228 24.066231,-10.52184 5.158636,-5.3218 11.807306,-8.53997 20.041156,-9.66969 8.66877,-1.18938 16.08846,0.10437 22.35522,3.84938 6.58674,3.93609 15.1128,5.1508 25.50594,3.72483 10.60542,-1.45504 18.5542,-4.92681 23.75204,-10.48618 4.93545,-5.27883 11.68658,-8.51595 20.35534,-9.70535 6.33713,-0.86946 11.79148,-0.29425 16.40624,1.68775 2.46744,1.05975 5.141,1.91374 7.97832,2.60398 v -1.44074 c -2.64607,-0.66 -5.14138,-1.45587 -7.42952,-2.43861 -3.66752,-1.57522 -7.807,-2.29703 -12.40027,-2.18178 z m 7.03316,24.76386 c -2.68328,-0.12431 -5.49207,0.0154 -8.42378,0.41755 -10.60545,1.4551 -18.50359,4.91963 -23.59597,10.46913 -4.82385,5.25678 -11.62326,8.5032 -20.50935,9.7224 -8.66879,1.18934 -16.03279,-0.11064 -22.18986,-3.86695 -6.48611,-3.95701 -15.06845,-5.16023 -25.67388,-3.7052 -10.60542,1.45508 -18.55369,4.92476 -23.751523,10.48412 -4.932589,5.27569 -11.789702,8.53113 -20.67574,9.75031 -8.668801,1.18939 -15.917993,-0.1257 -21.855514,-3.90416 -6.277915,-3.99504 -14.757876,-5.21093 -25.36331,-3.75584 -5.863449,0.80446 -10.922182,2.48027 -15.15463,5.04104 C 7.9904411,261.72493 3.9875959,263.86268 0,265.73003 v 1.54306 l 0.29300537,-0.13642 C 4.426038,265.21503 8.570654,262.99583 12.728422,260.48022 c 4.042809,-2.44599 8.912051,-4.06965 14.624947,-4.85345 10.403493,-1.42734 18.520675,-0.20647 24.427966,3.55276 6.24768,3.97579 13.880764,5.33026 22.790857,4.10776 9.121619,-1.2515 16.32259,-4.6386 21.49998,-10.17612 4.912218,-5.25389 12.524298,-8.63093 22.927798,-10.05831 10.40351,-1.42732 18.63398,-0.22285 24.7618,3.51555 6.45686,3.93924 14.18926,5.27905 23.09936,4.0566 9.12159,-1.25152 16.27418,-4.63104 21.34599,-10.15803 4.80315,-5.23431 12.35788,-8.60404 22.7614,-10.03143 2.8565,-0.39183 5.57972,-0.52825 8.17004,-0.40825 2.59042,0.11999 5.04731,0.49546 7.37526,1.12293 1.85808,0.50085 3.67657,0.94825 5.48597,1.38751 v -1.43195 c -1.69705,-0.41327 -3.395,-0.83082 -5.12475,-1.29708 -2.4311,-0.65527 -4.9887,-1.0436 -7.67188,-1.16789 z m -0.52762,23.32623 c -1.5311,0.0384 -3.11251,0.17046 -4.7439,0.39429 -8.9101,1.22251 -16.00508,4.59627 -21.17958,10.13065 -3.06817,3.28163 -7.18353,5.82823 -12.38271,7.62899 l -0.0873,0.0305 h 3.72122 c 3.91029,-1.73732 7.18926,-3.95819 9.76219,-6.71019 4.93556,-5.27874 11.68708,-8.51543 20.35587,-9.70483 6.33706,-0.86945 11.79147,-0.29473 16.40623,1.68724 0.50119,0.21527 1.00194,0.38351 1.47226,0.55913 v -1.48518 c -0.31451,-0.11421 -0.64546,-0.22993 -0.92346,-0.34933 -3.66753,-1.57516 -7.80749,-2.2965 -12.40079,-2.18126 z m -90.24204,12.57391 c -2.08528,-0.0144 -4.24287,0.13208 -6.4704,0.4377 -5.57429,0.7648 -10.52584,2.50496 -14.86111,5.17281 h 2.89595 c 3.63155,-1.88204 7.65712,-3.17912 12.15429,-3.79615 8.62548,-1.18343 16.01271,0.0944 22.25963,3.79615 h 2.97501 l -0.002,-0.001 c -0.74968,-0.35583 -1.47863,-0.72803 -2.16627,-1.13895 -4.92118,-2.94082 -10.52904,-4.42738 -16.78503,-4.47053 z"
       inkscape:export-filename="../../../Documents/rvlt-bannr-servr.png"
       inkscape:export-xdpi="96"
       inkscape:export-ydpi="96" />
  </g>
</svg>
